# Blender v2.82 (sub 7) OBJ File: 'annularcylinder.blend'
# www.blender.org
mtllib annularcylinder.mtl
o Cylinder_Cylinder.003
v 0.000000 -0.618891 -1.000000
v 0.000000 0.618891 -1.000000
v 0.195090 -0.618891 -0.980785
v 0.195090 0.618891 -0.980785
v 0.382683 -0.618891 -0.923880
v 0.382683 0.618891 -0.923880
v 0.555570 -0.618891 -0.831470
v 0.555570 0.618891 -0.831470
v 0.707107 -0.618891 -0.707107
v 0.707107 0.618891 -0.707107
v 0.831470 -0.618891 -0.555570
v 0.831470 0.618891 -0.555570
v 0.923880 -0.618891 -0.382683
v 0.923880 0.618891 -0.382683
v 0.980785 -0.618891 -0.195090
v 0.980785 0.618891 -0.195090
v 1.000000 -0.618891 -0.000000
v 1.000000 0.618891 -0.000000
v 0.980785 -0.618891 0.195090
v 0.980785 0.618891 0.195090
v 0.923880 -0.618891 0.382683
v 0.923880 0.618891 0.382683
v 0.831470 -0.618891 0.555570
v 0.831470 0.618891 0.555570
v 0.707107 -0.618891 0.707107
v 0.707107 0.618891 0.707107
v 0.555570 -0.618891 0.831470
v 0.555570 0.618891 0.831470
v 0.382683 -0.618891 0.923880
v 0.382683 0.618891 0.923880
v 0.195090 -0.618891 0.980785
v 0.195090 0.618891 0.980785
v -0.000000 -0.618891 1.000000
v -0.000000 0.618891 1.000000
v -0.195091 -0.618891 0.980785
v -0.195091 0.618891 0.980785
v -0.382684 -0.618891 0.923879
v -0.382684 0.618891 0.923879
v -0.555571 -0.618891 0.831469
v -0.555571 0.618891 0.831469
v -0.707107 -0.618891 0.707106
v -0.707107 0.618891 0.707106
v -0.831470 -0.618891 0.555570
v -0.831470 0.618891 0.555570
v -0.923880 -0.618891 0.382683
v -0.923880 0.618891 0.382683
v -0.980785 -0.618891 0.195089
v -0.980785 0.618891 0.195089
v -1.000000 -0.618891 -0.000001
v -1.000000 0.618891 -0.000001
v -0.980785 -0.618891 -0.195091
v -0.980785 0.618891 -0.195091
v -0.923879 -0.618891 -0.382684
v -0.923879 0.618891 -0.382684
v -0.831469 -0.618891 -0.555571
v -0.831469 0.618891 -0.555571
v -0.707106 -0.618891 -0.707108
v -0.707106 0.618891 -0.707108
v -0.555569 -0.618891 -0.831470
v -0.555569 0.618891 -0.831470
v -0.382682 -0.618891 -0.923880
v -0.382682 0.618891 -0.923880
v -0.195089 -0.618891 -0.980786
v -0.195089 0.618891 -0.980786
v 0.488084 0.618891 0.326127
v 0.488084 -0.618891 0.326127
v 0.000000 0.618891 -0.587014
v 0.000000 -0.618891 -0.587014
v -0.114520 0.618891 -0.575734
v -0.114520 -0.618891 -0.575734
v -0.224640 0.618891 -0.542330
v -0.224640 -0.618891 -0.542330
v -0.542330 0.618891 0.224640
v -0.542330 -0.618891 0.224640
v -0.488084 0.618891 0.326127
v -0.488084 -0.618891 0.326127
v -0.575734 0.618891 0.114520
v -0.575734 -0.618891 0.114520
v -0.415082 0.618891 0.415081
v -0.415082 -0.618891 0.415081
v -0.114521 0.618891 0.575734
v -0.114521 -0.618891 0.575734
v -0.000000 0.618891 0.587014
v -0.000000 -0.618891 0.587014
v -0.224641 0.618891 0.542330
v -0.224641 -0.618891 0.542330
v 0.575734 0.618891 -0.114521
v 0.575734 -0.618891 -0.114521
v 0.326127 0.618891 -0.488084
v 0.326127 -0.618891 -0.488084
v 0.587014 0.618891 -0.000000
v 0.587014 -0.618891 -0.000000
v 0.542330 0.618891 -0.224640
v 0.542330 -0.618891 -0.224640
v 0.114521 0.618891 0.575734
v 0.114521 -0.618891 0.575734
v -0.415081 0.618891 -0.415082
v -0.415081 -0.618891 -0.415082
v -0.326127 0.618891 -0.488084
v -0.326127 -0.618891 -0.488084
v -0.488084 0.618891 -0.326128
v -0.488084 -0.618891 -0.326128
v 0.575734 0.618891 0.114521
v 0.575734 -0.618891 0.114521
v 0.326127 0.618891 0.488084
v 0.326127 -0.618891 0.488084
v 0.415081 0.618891 0.415081
v 0.415081 -0.618891 0.415081
v 0.542330 0.618891 0.224640
v 0.542330 -0.618891 0.224640
v -0.587014 0.618891 -0.000001
v -0.587014 -0.618891 -0.000001
v -0.326128 0.618891 0.488084
v -0.326128 -0.618891 0.488084
v -0.575734 0.618891 -0.114521
v -0.575734 -0.618891 -0.114521
v 0.415081 0.618891 -0.415081
v 0.415081 -0.618891 -0.415081
v 0.224640 0.618891 0.542330
v 0.224640 -0.618891 0.542330
v 0.488084 0.618891 -0.326127
v 0.488084 -0.618891 -0.326127
v -0.542330 0.618891 -0.224641
v -0.542330 -0.618891 -0.224641
v 0.224640 0.618891 -0.542330
v 0.224640 -0.618891 -0.542330
v 0.114521 0.618891 -0.575734
v 0.114521 -0.618891 -0.575734
vn 0.0000 1.0000 -0.0000
vn 0.0000 -1.0000 0.0000
vn 0.0000 -0.6857 -0.7279
vn 0.0000 0.6857 -0.7279
vn 0.1420 0.6857 -0.7139
vn 0.1420 -0.6857 -0.7139
vn 0.2785 0.6857 -0.6725
vn 0.2785 -0.6857 -0.6725
vn 0.4044 0.6857 -0.6052
vn 0.4044 -0.6857 -0.6052
vn 0.5147 0.6857 -0.5147
vn 0.5147 -0.6857 -0.5147
vn 0.6052 0.6857 -0.4044
vn 0.6052 -0.6857 -0.4044
vn 0.6725 0.6857 -0.2785
vn 0.6725 -0.6857 -0.2785
vn 0.7139 0.6857 -0.1420
vn 0.7139 -0.6857 -0.1420
vn 0.7279 0.6857 0.0000
vn 0.7279 -0.6857 0.0000
vn 0.7139 0.6857 0.1420
vn 0.7139 -0.6857 0.1420
vn 0.6725 0.6857 0.2785
vn 0.6725 -0.6857 0.2785
vn 0.6052 0.6857 0.4044
vn 0.6052 -0.6857 0.4044
vn 0.5147 0.6857 0.5147
vn 0.5147 -0.6857 0.5147
vn 0.4044 0.6857 0.6052
vn 0.4044 -0.6857 0.6052
vn 0.2785 0.6857 0.6725
vn 0.2785 -0.6857 0.6725
vn 0.1420 0.6857 0.7139
vn 0.1420 -0.6857 0.7139
vn 0.0000 0.6857 0.7279
vn 0.0000 -0.6857 0.7279
vn -0.1420 0.6857 0.7139
vn -0.1420 -0.6857 0.7139
vn -0.2785 0.6857 0.6725
vn -0.2785 -0.6857 0.6725
vn -0.4044 0.6857 0.6052
vn -0.4044 -0.6857 0.6052
vn -0.5147 0.6857 0.5147
vn -0.5147 -0.6857 0.5147
vn -0.6052 0.6857 0.4044
vn -0.6052 -0.6857 0.4044
vn -0.6725 0.6857 0.2785
vn -0.6725 -0.6857 0.2785
vn -0.7139 0.6857 0.1420
vn -0.7139 -0.6857 0.1420
vn -0.7279 0.6857 0.0000
vn -0.7279 -0.6857 0.0000
vn -0.7139 0.6857 -0.1420
vn -0.7139 -0.6857 -0.1420
vn -0.6725 0.6857 -0.2785
vn -0.6725 -0.6857 -0.2785
vn -0.6052 0.6857 -0.4044
vn -0.6052 -0.6857 -0.4044
vn -0.5147 0.6857 -0.5147
vn -0.5147 -0.6857 -0.5147
vn -0.4044 0.6857 -0.6052
vn -0.4044 -0.6857 -0.6052
vn -0.2785 0.6857 -0.6725
vn -0.2785 -0.6857 -0.6725
vn -0.1420 0.6857 -0.7139
vn -0.1420 -0.6857 -0.7139
vn -0.6836 0.7298 0.0000
vn -0.6836 -0.7298 0.0000
vn 0.6836 0.7298 0.0000
vn 0.6836 -0.7298 0.0000
usemtl None
s off
f 4//1 2//1 64//1 62//1 60//1 58//1 56//1 54//1 52//1 50//1 111//1 115//1 123//1 101//1 97//1 99//1 71//1 69//1 67//1 127//1 125//1 89//1 117//1 121//1 93//1 87//1 91//1 18//1 16//1 14//1 12//1 10//1 8//1 6//1
f 1//2 3//2 5//2 7//2 9//2 11//2 13//2 15//2 17//2 92//2 88//2 94//2 122//2 118//2 90//2 126//2 128//2 68//2 70//2 72//2 100//2 98//2 102//2 124//2 116//2 112//2 49//2 51//2 53//2 55//2 57//2 59//2 61//2 63//2
f 18//1 91//1 103//1 109//1 65//1 107//1 105//1 119//1 95//1 83//1 81//1 85//1 113//1 79//1 75//1 73//1 77//1 111//1 50//1 48//1 46//1 44//1 42//1 40//1 38//1 36//1 34//1 32//1 30//1 28//1 26//1 24//1 22//1 20//1
f 49//2 112//2 78//2 74//2 76//2 80//2 114//2 86//2 82//2 84//2 96//2 120//2 106//2 108//2 66//2 110//2 104//2 92//2 17//2 19//2 21//2 23//2 25//2 27//2 29//2 31//2 33//2 35//2 37//2 39//2 41//2 43//2 45//2 47//2
s 1
f 1//3 2//4 4//5 3//6
f 3//6 4//5 6//7 5//8
f 5//8 6//7 8//9 7//10
f 7//10 8//9 10//11 9//12
f 9//12 10//11 12//13 11//14
f 11//14 12//13 14//15 13//16
f 13//16 14//15 16//17 15//18
f 15//18 16//17 18//19 17//20
f 17//20 18//19 20//21 19//22
f 19//22 20//21 22//23 21//24
f 21//24 22//23 24//25 23//26
f 23//26 24//25 26//27 25//28
f 25//28 26//27 28//29 27//30
f 27//30 28//29 30//31 29//32
f 29//32 30//31 32//33 31//34
f 31//34 32//33 34//35 33//36
f 33//36 34//35 36//37 35//38
f 35//38 36//37 38//39 37//40
f 37//40 38//39 40//41 39//42
f 39//42 40//41 42//43 41//44
f 41//44 42//43 44//45 43//46
f 43//46 44//45 46//47 45//48
f 45//48 46//47 48//49 47//50
f 47//50 48//49 50//51 49//52
f 49//52 50//51 52//53 51//54
f 51//54 52//53 54//55 53//56
f 53//56 54//55 56//57 55//58
f 55//58 56//57 58//59 57//60
f 57//60 58//59 60//61 59//62
f 59//62 60//61 62//63 61//64
f 61//64 62//63 64//65 63//66
f 63//66 64//65 2//4 1//3
f 104//54 103//53 91//67 92//68
f 108//60 107//59 65//57 66//58
f 66//58 65//57 109//55 110//56
f 116//22 115//21 111//69 112//70
f 88//50 87//49 93//47 94//48
f 92//68 91//67 87//49 88//50
f 122//46 121//45 117//43 118//44
f 68//36 67//35 69//33 70//34
f 82//6 81//5 83//4 84//3
f 102//26 101//25 123//23 124//24
f 84//3 83//4 95//65 96//66
f 70//34 69//33 71//31 72//32
f 118//44 117//43 89//41 90//42
f 114//10 113//9 85//7 86//8
f 90//42 89//41 125//39 126//40
f 106//62 105//61 107//59 108//60
f 100//30 99//29 97//27 98//28
f 124//24 123//23 115//21 116//22
f 120//64 119//63 105//61 106//62
f 80//12 79//11 113//9 114//10
f 74//16 73//15 75//13 76//14
f 128//38 127//37 67//35 68//36
f 94//48 93//47 121//45 122//46
f 112//70 111//69 77//17 78//18
f 110//56 109//55 103//53 104//54
f 86//8 85//7 81//5 82//6
f 72//32 71//31 99//29 100//30
f 126//40 125//39 127//37 128//38
f 96//66 95//65 119//63 120//64
f 78//18 77//17 73//15 74//16
f 98//28 97//27 101//25 102//26
f 76//14 75//13 79//11 80//12
